# xmcd
#
# Track frame offsets:
#	150
#	11779
#	23440
#	39050
#	62005
#	77104
#	87553
#	105365
#	123353
#	131855
#	141841
#	155016
#	169374
#	182367
#
# Disc length: 2620 seconds
# Revision: 0
# Processed by: cddbd v1.5.2PL0 Copyright (c) Steve Scherf et al.
# Submitted via: dBpowerAMP V12.0
#
DISCID=af0a3a0e
DTITLE=David Grier - Fly on the Wall
DYEAR=2014
DGENRE=Country
TTITLE0=Poor Little Mary
TTITLE1=Devil In The Strawstack
TTITLE2=Polly Put The Kettle On
TTITLE3=Brushy Ford Of Johns Creek
TTITLE4=Indian Squaw
TTITLE5=Flowers Of Edinburgh
TTITLE6=Golden Slippers
TTITLE7=Sandy Boys
TTITLE8=Inch Along
TTITLE9=Gilda Roy
TTITLE10=Happy Holler
TTITLE11=Joke On The Puppy
TTITLE12=Sometime Next Summer
TTITLE13=Salt Creek
EXTD=
EXTT0=
EXTT1=
EXTT2=
EXTT3=
EXTT4=
EXTT5=
EXTT6=
EXTT7=
EXTT8=
EXTT9=
EXTT10=
EXTT11=
EXTT12=
EXTT13=
PLAYORDER=
